<svg xmlns="http://www.w3.org/2000/svg" viewBox="0 0 1200 800" role="img" aria-label="Ludiparc karting illustration">
  <defs>
    <linearGradient id="bg" x1="0" y1="0" x2="1" y2="1">
      <stop offset="0%" stop-color="#0b63c7"/>
      <stop offset="100%" stop-color="#004aad"/>
    </linearGradient>
    <linearGradient id="track" x1="0" y1="0" x2="1" y2="1">
      <stop offset="0%" stop-color="#333"/>
      <stop offset="100%" stop-color="#111"/>
    </linearGradient>
  </defs>
  <rect width="1200" height="800" fill="url(#bg)"/>
  <g filter="url(#shadow)">
    <path d="M150,600 C250,500 300,450 450,450 C650,450 750,650 950,600 C1050,570 1050,480 950,450 C800,400 650,300 500,300 C350,300 250,380 200,420 C120,480 120,560 150,600 Z" fill="url(#track)" stroke="#eee" stroke-width="6" stroke-dasharray="16 14" opacity="0.95"/>
  </g>
  <g transform="translate(680,520)">
    <rect x="-80" y="-32" rx="16" ry="16" width="160" height="64" fill="#e63946"/>
    <circle cx="-40" cy="32" r="16" fill="#222" stroke="#aaa" stroke-width="6"/>
    <circle cx="40" cy="32" r="16" fill="#222" stroke="#aaa" stroke-width="6"/>
    <rect x="-30" y="-52" width="60" height="20" rx="6" fill="#ffd43b"/>
  </g>
  <text x="50" y="90" font-family="Segoe UI, Arial, sans-serif" font-size="56" fill="#fff" opacity="0.95">Ludiparc • Karting</text>
</svg>
